<svg version="1.1" xmlns="http://www.w3.org/2000/svg" xmlns:xlink="http://www.w3.org/1999/xlink" x="0px" y="0px"
	 viewBox="0 0 245.7 245.8" style="enable-background:new 0 0 245.7 245.8;" xml:space="preserve">
		<path fill="#ED4239" d="M130.8,245.8h-16c-0.2-0.1-0.4-0.2-0.6-0.3c-4.7-0.6-9.5-1-14.2-1.8c-6.9-1.2-13.6-3-20.1-5.6
			c-24.6-9.2-45.6-26-60-48c-7.4-11.1-12.8-23.5-16-36.4c-1.5-6-2.2-12.2-3.2-18.4c-0.2-1.5-0.4-3-0.6-4.5V115
			c0.1-0.4,0.2-0.7,0.2-1.1c0.5-4.3,0.8-8.6,1.6-12.8c1.5-8.5,4-16.9,7.3-24.9c4.4-10.8,10.4-20.9,17.6-30
			c21.9-27.4,54.4-44.1,89.4-46c8.7-0.5,17.3-0.1,25.9,1.3c9.2,1.5,18.2,4,26.9,7.5c23.8,9.5,44,26.4,57.7,48.1
			c11.3,17.6,17.9,37.8,18.9,58.7c0.6,9.7,0.1,19.4-1.7,29c-1.7,9.1-4.3,18-7.9,26.4c-9.4,22-24.9,40.8-44.8,54
			c-12.7,8.6-26.9,14.6-41.9,17.8c-4.7,1-9.6,1.5-14.4,2.2C133.5,245.5,132.1,245.6,130.8,245.8z M135.5,101
			c0.2,0.4,0.3,0.5,0.3,0.6c0.1,1.2,0.3,2.4,0.3,3.5c0.2,9.2-0.4,18.5-1.8,27.6c-0.7,5-1.5,10-2.2,15c-0.6,4.6-1.1,9.2-1.4,13.8
			c-0.6,6.5-0.4,13,0.6,19.4c0,1.1,1,2,2.1,2c0.1,0,0.1,0,0.2,0c3.9,0.1,7.8-0.6,11.5-2c4-1.5,6.5-4.7,6.5-8.1
			c0-5.8,0-11.7,0.2-17.5c0.1-4.1,0.5-8.2,0.9-12.3c0.5-4.9,1-9.8,1.6-14.7s1.2-9.8,1.8-14.6s1.1-9.7,1.6-14.5
			c0.4-4.2,0.8-8.5,1-12.8c0.2-6.3,0.2-12.7,0.2-19.1c-0.1-0.4-0.4-0.7-0.8-0.9c-1.4-0.3-2.9-0.5-4.4-0.6c-4.9,0-9.7,1.6-13.6,4.6
			c-4.4,3.3-8.1,7.3-11.1,11.9c-5.1,7.3-10,14.9-15.1,22.2c-2.3,3.3-4.9,6.4-7.4,9.5c-0.3,0.4-1.3,0.7-1.4,0.5
			c-1.1-1.1-2.3-2.1-2.3-4c0.1-10.6,0.2-21.2,0-31.7c-0.1-5.1-1.2-10.1-3.3-14.7c-0.6-1.6-2-2.8-3.7-3.1c-1.3-0.3-2.6-0.4-3.8-0.3
			c-4.4,0.3-8.1,1.7-9.9,6.3C76.8,81.2,71.4,95.3,66,109.3c-3,8-5.7,16-10.1,23.4c-2.8,4.8-5.4,9.7-7.9,14.6
			c-2.1,4.1-3.6,8.3-3.3,13c0.2,3.8,2.3,6.9,5.4,7.5c5,1,10.1,0,14.4-2.7c1.7-1,3-2.7,3.6-4.6c0.7-2.3,1.4-4.6,1.9-7
			c0.9-5.6,2.7-11,5.3-16.1c1.2-2.2,1.7-4.9,2.4-7.4c0.5-1.5,0.7-3.1,1.3-4.6c0.8-2.1,2.6-2.5,4.3-0.9c0.7,0.6,1.3,1.5,1.6,2.4
			c0.5,1.6,0.8,3.3,0.8,5c-0.3,4.6-0.9,9.2-1.3,13.8c-0.1,1,0,2.1,0.2,3.1c1.4,4.4,6.4,6.1,11.2,5.2c4.4-0.8,7.6-3.5,10.4-6.7
			c1-1,1.6-2.4,1.7-3.8c0.1-1.8,0.8-3.6,1.9-5.1c2.3-3.1,4.5-6.4,6.7-9.7c4.7-7.2,9.3-14.5,14.1-21.7
			C132.1,105,133.8,103.1,135.5,101z M198.5,71.2c-3.2,0.5-6.5,0.8-9.5,1.8c-12.9,4.5-21.3,13.4-25.5,26.3c-2,6.5-3.3,13.2-3.7,20
			c-0.5,5.5,0,11.1,1.5,16.4c3,10,11.2,16.4,21.6,16.2c5.3-0.1,10.5-1.2,15.8-1.6c5.9-0.5,10.8-5.6,12.1-10.7c0.6-1.9,0.4-4-0.7-5.7
			c-0.5-0.8-1-1-2-0.6c-4.3,1.7-8.6,3.4-13,4.7c-4.7,1.5-9.2,1.2-13.3-2.1c-2.5-2-3-5.5,0.5-7.4c6.3-3.3,12.5-6.8,18.9-10.2
			c5.8-3.1,11.8-5.9,16.9-10.1c1.6-1.3,3.4-2.8,4.1-4.6c1.6-4.2,1.8-8.9,0.8-13.2C220.1,78.8,210.6,71.4,198.5,71.2L198.5,71.2z
			 M17.6,154c-0.1,3.8,1.4,7.5,4,10.2c3.2,3.4,8.4,3.5,11.8,0.3c0.9-0.8,1.6-1.8,2-2.9c1.4-3.5,1.5-7.4,0.5-11
			c-0.6-2.8-2.8-5-5.7-5.4c-1.3-0.2-2.7-0.3-4-0.2c-4.8,0-8.6,3.9-8.7,8.6C17.5,153.7,17.6,153.8,17.6,154z M195.2,87.3
			c-6.6,0-11.4,3-14.2,9c-1.1,2.5-1.9,5.1-2.4,7.8c-0.3,1.7-0.4,3.5-0.2,5.3c0.1,1.2,1.1,2.1,2.3,2c0.1,0,0.2,0,0.3,0
			c3.3-0.3,6.5-0.9,9.8-1.6c6.4-1.7,11.7-6,14.7-11.8c1.9-3.4,1.1-6.5-2.2-8.5C200.9,87.9,198.1,87.2,195.2,87.3z M181,96.3
			c-1.1,2.5-1.9,5.1-2.4,7.8c-0.3,1.7-0.4,3.5-0.2,5.3c0.1,1.2,1.1,2.1,2.3,2c0.1,0,0.2,0,0.3,0c3.3-0.3,6.5-0.9,9.8-1.6
			c6.4-1.7,11.7-6,14.7-11.8c1.9-3.4,1.1-6.5-2.2-8.5c-2.4-1.5-5.3-2.2-8.1-2.1C188.6,87.3,183.8,90.3,181,96.3L181,96.3z"/>
</svg>
