<svg version="1.1" xmlns="http://www.w3.org/2000/svg" xmlns:xlink="http://www.w3.org/1999/xlink" x="0px" y="0px"
	 viewBox="0 0 590.4 278.9" style="enable-background:new 0 0 590.4 278.9;" xml:space="preserve">
		<path d="M590.4,53.1v21.3l-25.1,4c10.2,17.1,12.7,33.6,6.8,51.2c-9.6,28.9-40.7,46.6-70.2,39.1c-5.1-1.3-9.8-3-11.4,3.9
			c-1.5,6.6,3.6,8.7,8.4,9.2c14.9,1.6,29.9,2.4,44.9,3.7c4.2,0.4,8.4,1,12.5,1.9c28.6,6.3,39.9,33.2,24.7,58.4
			c-7.7,12.7-18.9,20.9-32.6,25.8c-28.4,10-56.6,10.5-83.7-4.1c-6.2-3.6-11.6-8.5-15.7-14.4c-9.5-13.2-6.6-29.1,6.2-39.2
			c3.5-2.8,7.4-5,11.1-7.5c-16.1-18.6-13.4-32.9,9.9-50.5c-1.6-2-3.2-4-4.8-5.9c-14.5-17.4-18.7-37.2-11-58.2
			c7.9-21.6,24-36.5,47.1-38.2C534.7,51.5,562.1,53.1,590.4,53.1z M515.4,82.3c-17.7,0-28.2,10.8-28.4,28.9
			c-0.2,17.9,11,30.1,27.4,30.1c18.2,0,29.8-11.8,29.5-30.1C543.7,93.5,532.7,82.3,515.4,82.3L515.4,82.3z M492.4,247.4
			c14.6,3.6,29.9,3.4,44.5-0.6c2-0.5,3.9-1.1,5.9-1.7c7-2.3,11.3-8.2,10.7-16s-6.9-9.9-13.2-11.3c-3.6-0.8-7.2-1.3-10.8-1.5
			c-10.7-0.6-21.5-0.9-32.2-1.6c-8.5-0.5-16.8,5.7-18.8,14.4c-1.6,7.2,2.4,14.9,10.7,17.5C490.1,246.8,491.2,247.1,492.4,247.4z"/>
		<path d="M102.2,183.8l-1,10.3H68V0h33.4v65.7c13.3-4.1,25.7-10.2,38.6-11.6c33-3.4,52.9,12.2,60.1,44.8
			c4.3,19.2,3.3,39.2-2.8,57.9c-12.7,39.4-53.8,53.7-88.6,31.2C106.8,186.7,104.8,185.5,102.2,183.8z M101.6,125.3v9.9
			c0,22.3,4.4,27.3,26.9,30.6c2.4,0.3,4.8,0.5,7.2,0.4c15.3,0.1,24.1-6.1,28.5-21c4.4-14.8,4.3-30.5-0.3-45.2
			c-4.8-15.2-16.1-21.5-32.2-18.7c-19.5,3.4-30.1,13.5-30.1,28.6L101.6,125.3z"/>
		<path d="M432.3,125.6c-0.4,22-4.5,43.2-22.9,57.3c-25.8,20-55.2,20.4-83.4,7c-27.4-12.9-33.8-39-33.5-66.8
			c0.2-19.3,4.4-37.9,19.2-51.8c23.5-22,51.6-23.3,80-13.4c28.1,9.8,38.5,33.4,40.6,61.4C432.4,121.4,432.3,123.5,432.3,125.6z
			 M395.2,141.9c2-11.1,1.8-22.5-0.5-33.5c-0.4-1.8-0.8-3.6-1.3-5.4c-4.2-14.6-14.7-21.8-30.2-22.1c-16.3-0.3-26.9,6.4-31.8,21.2
			c-4.9,14.7-5.1,30.5-0.7,45.3c4.5,15.4,16,24,31,23.8c17.3-0.3,28.8-9,32.7-25.4C394.7,144.4,395,143.1,395.2,141.9L395.2,141.9z"
			/>
		<path d="M231,0h32.3v194.3H231V0z"/>
		<path d="M33,194.7c-2.9,0.2-5.5,0.5-8.2,0.5c-8.1,0.1-16.1,0-24.8,0v-34.4h33V194.7z"/>
</svg>
