<svg version="1.1" xmlns="http://www.w3.org/2000/svg" xmlns:xlink="http://www.w3.org/1999/xlink" x="0px" y="0px"
	 viewBox="0 0 360 125.51" style="enable-background:new 0 0 360 125.51;" xml:space="preserve">
<path d="M11.87,125.51c6.56,0,11.87-5.31,11.87-11.87c0-6.56-5.32-11.87-11.87-11.87C5.32,101.77,0,107.08,0,113.64
	C0,120.19,5.32,125.51,11.87,125.51z M212.56,125.43c21.99,0,39.82-17.83,39.82-39.82V35.2h-24.02v50.4c0,8.73-7.07,15.8-15.8,15.8
	c-8.73,0-15.8-7.08-15.8-15.8V35.2h-24.02v50.4C172.74,107.6,190.57,125.43,212.56,125.43z M314.62,125.51
	c25.06,0,45.38-20.32,45.38-45.38s-20.32-45.38-45.38-45.38c-7.72,0-14.99,1.94-21.36,5.35V0h-24.02v80.13
	C269.24,105.19,289.56,125.51,314.62,125.51z M314.62,58.89c11.73,0,21.24,9.51,21.24,21.24s-9.51,21.24-21.24,21.24
	c-11.73,0-21.24-9.51-21.24-21.24S302.89,58.89,314.62,58.89z M155.11,125.39V0h-24.02v101.37
	C131.09,114.63,141.84,125.39,155.11,125.39z M73.69,125.51c22.4,0,40.95-16.24,44.66-37.57H93.43
	c-3.11,7.86-10.77,13.43-19.74,13.43c-11.73,0-21.23-9.51-21.23-21.24s9.51-21.24,21.23-21.24c8.97,0,16.62,5.57,19.74,13.43h24.93
	c-3.71-21.34-22.27-37.57-44.66-37.57c-25.06,0-45.38,20.31-45.38,45.38S48.63,125.51,73.69,125.51z"/>
</svg>
