<svg xmlns="http://www.w3.org/2000/svg" xmlns:xlink="http://www.w3.org/1999/xlink" viewBox="0 0 895.94 366.39"><defs><style>.cls-3{clip-path:url(#clip-path);}.cls-4{clip-path:url(#clip-path-2);}.cls-5{clip-path:url(#clip-path-3);}.cls-6{clip-path:url(#clip-path-4);}</style><clipPath id="clip-path"><path fill="#2e2e2e" d="M370.25,193h47.82c45.32,0,71.87-24.35,71.87-59.77,0-33.51-26.15-59.76-59.54-59.76H318.18L294.94,20.82H434.33c63.83,0,112,48.31,112,112.37,0,47-28.51,87.36-72.81,103.43l87.19,110.25H493.32L370.25,193"/></clipPath><clipPath id="clip-path-2"><path fill="#2e2e2e" d="M610.69,20.82a206.13,206.13,0,0,1,24,52.59h82V346.87h56V73.41H878.59V20.82H610.69"/></clipPath><clipPath id="clip-path-3"><path fill="#2e2e2e" d="M146.75,146l88.45,199.4h61.67L151.9,17.35S114.47,102,107.56,117.67c16.79-7.25,27.09-.31,39.19,28.36"/></clipPath><clipPath id="clip-path-4"><path fill="#e83e27" d="M59.85,263.71a42.67,42.67,0,1,0,42.51,42.66,42.58,42.58,0,0,0-42.51-42.66"/></clipPath></defs><title>logo_b_r</title><g data-name="Layer 2"><g id="without_text_black"><path id="SVGID" fill="#2e2e2e" d="M370.25,193h47.82c45.32,0,71.87-24.35,71.87-59.77,0-33.51-26.15-59.76-59.54-59.76H318.18L294.94,20.82H434.33c63.83,0,112,48.31,112,112.37,0,47-28.51,87.36-72.81,103.43l87.19,110.25H493.32L370.25,193"/><path fill="#2e2e2e" d="M370.25,193h47.82c45.32,0,71.87-24.35,71.87-59.77,0-33.51-26.15-59.76-59.54-59.76H318.18L294.94,20.82H434.33c63.83,0,112,48.31,112,112.37,0,47-28.51,87.36-72.81,103.43l87.19,110.25H493.32L370.25,193"/><g class="cls-3"><rect fill="#2e2e2e" x="277.59" y="3.47" width="300.44" height="360.75"/></g><path id="SVGID-2" data-name="SVGID" fill="#2e2e2e" d="M610.69,20.82a206.13,206.13,0,0,1,24,52.59h82V346.87h56V73.41H878.59V20.82H610.69"/><path fill="#2e2e2e" d="M610.69,20.82a206.13,206.13,0,0,1,24,52.59h82V346.87h56V73.41H878.59V20.82H610.69"/><g class="cls-4"><rect fill="#2e2e2e" x="593.34" y="3.47" width="302.6" height="360.75"/></g><path id="SVGID-3" data-name="SVGID" fill="#2e2e2e" d="M146.75,146l88.45,199.4h61.67L151.9,17.35S114.47,102,107.56,117.67c16.79-7.25,27.09-.31,39.19,28.36"/><path fill="#2e2e2e" d="M146.75,146l88.45,199.4h61.67L151.9,17.35S114.47,102,107.56,117.67c16.79-7.25,27.09-.31,39.19,28.36"/><g class="cls-5"><rect fill="#2e2e2e" x="90.22" width="224.01" height="362.78"/></g><path fill="#e83e27" d="M59.85,263.71a42.67,42.67,0,1,0,42.51,42.66,42.58,42.58,0,0,0-42.51-42.66"/><g class="cls-6"><rect fill="#e83e27" y="246.36" width="119.71" height="120.03"/></g></g></g></svg>