<svg xmlns="http://www.w3.org/2000/svg" viewBox="0 0 650.2 378.7"><g><g><path fill="#491d55" d="M648.1,92.7,650.2,219A89.22,89.22,0,0,1,561,308.2H464.1a89.31,89.31,0,0,1-38-8.5c-10.2,17.7-22,32.3-35.5,44.2a136.88,136.88,0,0,1-92,34.8,90.56,90.56,0,0,1-90.8-81A92.88,92.88,0,0,1,160,311H96.2c-33.5,0-55.2-14-67.6-25.9C10.2,267.5,0,242.6,0,215.1c0-27.2,9.9-51.9,27.8-69.6a93,93,0,0,1,46.3-24.6A92.15,92.15,0,0,1,161.5,0H558.2C607.8,0,648.1,43.1,648.1,92.7Zm-77,12A16.75,16.75,0,0,0,575,94a17,17,0,0,0-16.9-17H468a15.8,15.8,0,0,0,0,31.6h59.4l-7.1,9.6-26.5,35.5-41.8,56c-2.1,2.8-3.9,5.6-3.9,10.5a16.29,16.29,0,0,0,16.1,16.1H561a16.15,16.15,0,0,0,0-32.3H497.1ZM437.9,93.3v-.2A18.86,18.86,0,0,0,419,74.3a18.5,18.5,0,0,0-17.5,11.9l-38.6,97.5L324.3,86.2a18.44,18.44,0,0,0-17.5-11.9h-.2a18.86,18.86,0,0,0-18.8,18.9,20.38,20.38,0,0,0,1.4,7.4l54,124.5c-11.5,28.7-22,46.6-44.5,46.6-10.1,0-18.2,7.4-18.2,17.5s8,17.5,18.2,17.5c35.1,0,57.2-24.5,72.6-58.9l65.2-147.3a19.92,19.92,0,0,0,1.4-7.2Zm-160,127c0-5.3-1.8-8.4-3.9-11.6l-42.4-53.3,41-50.5a18.07,18.07,0,0,0,3.9-11.6v-.2a18.86,18.86,0,0,0-18.9-18.8,19.29,19.29,0,0,0-15.1,7.4l-33,45.2-33-45.2a19,19,0,0,0-15.1-7.4h-.2a18.86,18.86,0,0,0-18.8,18.9,18.64,18.64,0,0,0,3.9,11.6l41,50.5-42.4,53.3c-2.1,3.2-3.9,6.3-3.9,11.6v.2a18.86,18.86,0,0,0,19,18.7c5.3,0,11.6-2.5,15.1-7.4,10.9-15.1,34.4-48.4,34.4-48.4s23.5,33.3,34.4,48.4c3.5,4.9,9.8,7.4,15.1,7.4a.09.09,0,0,1,.1.1h0A18.86,18.86,0,0,0,277.9,220.3ZM96.2,239.1c14.8,0,22.9-7.4,22.8-22.8,0-15.8-8.1-23.5-22.8-23.5s-23.1,7.7-23.1,23.5C73.1,231.7,81.5,239.1,96.2,239.1Z"/><path fill="#ffffff" d="M575,94a16.75,16.75,0,0,1-3.9,10.7l-74,99.3H561a16.15,16.15,0,0,1,0,32.3H464.2a16.29,16.29,0,0,1-16.1-16.1c0-4.9,1.8-7.7,3.9-10.5l41.8-56,26.5-35.5,7.1-9.6H468A15.8,15.8,0,0,1,468,77h90.1A17,17,0,0,1,575,94Z"/><path fill="#ffffff" d="M437.9,93.1v.2a19.92,19.92,0,0,1-1.4,7.2L371.3,247.8c-15.4,34.4-37.5,58.9-72.6,58.9-10.2,0-18.2-7.4-18.2-17.5s8.1-17.5,18.2-17.5c22.5,0,33-17.9,44.5-46.6l-54-124.5a20.38,20.38,0,0,1-1.4-7.4,18.86,18.86,0,0,1,18.8-18.9h.2a18.44,18.44,0,0,1,17.5,11.9l38.6,97.5,38.6-97.5A18.5,18.5,0,0,1,419,74.3a18.86,18.86,0,0,1,18.9,18.8Z"/><path fill="#ffffff" d="M274,208.7c2.1,3.2,3.9,6.3,3.9,11.6a18.86,18.86,0,0,1-18.8,18.9.09.09,0,0,0-.1-.1h0c-5.3,0-11.6-2.5-15.1-7.4-10.9-15.1-34.4-48.4-34.4-48.4s-23.5,33.3-34.4,48.4c-3.5,4.9-9.8,7.4-15.1,7.4a18.86,18.86,0,0,1-19-18.7v-.2c0-5.3,1.8-8.4,3.9-11.6l42.4-53.3-41-50.5a18.64,18.64,0,0,1-3.9-11.6,18.86,18.86,0,0,1,18.8-18.9h.2a19,19,0,0,1,15.1,7.4l33,45.2,33-45.2a19.29,19.29,0,0,1,15.1-7.4,18.86,18.86,0,0,1,18.9,18.8v.2a18.07,18.07,0,0,1-3.9,11.6l-41,50.5Z"/><path fill="#ffffff" d="M119,216.3c.1,15.4-8,22.8-22.8,22.8s-23.1-7.4-23.1-22.8c0-15.8,8.4-23.5,23.1-23.5S119,200.5,119,216.3Z"/></g></g></svg>