<svg width="268" height="93" viewBox="0 0 268 93" fill="none" xmlns="http://www.w3.org/2000/svg">
<g clip-path="url(#clip0_3679_2656)">
<path d="M7.63291 92.7091C11.8485 92.7091 15.2658 89.3062 15.2658 85.1085C15.2658 80.9107 11.8485 77.5078 7.63291 77.5078C3.41737 77.5078 0 80.9107 0 85.1085C0 89.3062 3.41737 92.7091 7.63291 92.7091Z" fill="#3B3C44"/>
<path d="M126.367 46.542C113.457 46.542 103.091 56.9577 103.091 69.7193C103.091 82.4809 113.551 92.8965 126.367 92.8965C139.183 92.8965 149.643 82.4809 149.643 69.7193C149.643 56.9577 139.183 46.542 126.367 46.542ZM126.367 83.2315C118.923 83.2315 112.892 77.2261 112.892 69.8131C112.892 62.4001 118.828 56.3008 126.367 56.3008C133.906 56.3008 139.842 62.3063 139.842 69.7193C139.842 77.1322 133.812 83.2315 126.367 83.2315Z" fill="#3B3C44"/>
<path d="M100.17 87.9234C100.17 85.296 98.0028 83.1378 95.3643 83.1378H82.0774C80.0985 83.1378 78.4965 81.5426 78.4965 79.5721V51.7031C78.4965 49.0757 76.3291 46.9175 73.6906 46.9175C71.052 46.9175 68.8847 49.0757 68.8847 51.7031V79.4783C68.8847 86.7974 74.8214 92.709 82.1716 92.709H95.4585C98.0028 92.709 100.17 90.5508 100.17 87.9234Z" fill="#3B3C44"/>
<path d="M197.136 46.5421C194.404 46.5421 192.236 48.7003 192.236 51.4215V69.8132C192.236 77.2262 186.205 83.2316 178.761 83.2316C171.316 83.2316 165.286 77.2262 165.286 69.8132V51.2339C165.286 48.5126 163.024 46.3544 160.291 46.4483C157.558 46.5421 155.391 48.7003 155.485 51.4215V69.8132C155.485 82.5748 165.851 92.8967 178.761 92.8967C191.671 92.8967 202.037 82.481 202.037 69.7194V51.2339C201.942 48.6065 199.775 46.5421 197.136 46.5421Z" fill="#3B3C44"/>
<path d="M58.0478 77.2261C56.6343 77.2261 55.315 77.7891 54.3727 78.9151C49.2841 84.3576 40.8031 84.7329 35.2433 79.6658C29.7778 74.5987 29.4008 66.1536 34.4894 60.6173C39.5781 55.1749 48.0591 54.7995 53.6188 59.8666C53.9958 60.1481 54.2785 60.5235 54.5612 60.805C56.4459 62.7755 59.5556 62.8693 61.5345 60.9926C63.5134 59.1159 63.6076 56.0194 61.7229 54.0488C61.6287 53.955 61.5345 53.8612 61.4402 53.7673C52.5823 44.4776 37.8819 44.0085 28.5527 52.829C19.2236 61.6495 18.7525 76.2878 27.6104 85.5774C36.4684 94.8671 51.1688 95.3363 60.4979 86.5158C60.8748 86.2343 61.1575 85.8589 61.5345 85.4836C63.4191 83.6069 63.5134 80.5103 61.6287 78.5398C60.5921 77.7891 59.3671 77.2261 58.0478 77.2261Z" fill="#3B3C44"/>
<path d="M231.626 46.542H213.062C210.423 46.6358 208.35 48.794 208.35 51.4214H208.256V88.111H208.35C208.35 90.8322 210.518 92.9904 213.25 92.9904H231.626C244.442 93.3657 255.184 83.2315 255.561 70.47C255.938 57.7084 245.761 47.0112 232.945 46.6358C232.474 46.542 232.097 46.542 231.626 46.542ZM231.626 83.1377H217.868V56.3008H231.532C238.976 56.3008 245.007 62.3063 245.007 69.7193C245.101 77.1322 239.07 83.1377 231.626 83.1377Z" fill="#3B3C44"/>
<path d="M178.949 46.4484C183.321 46.4484 186.865 42.9194 186.865 38.5662C186.865 34.213 183.321 30.6841 178.949 30.6841C174.578 30.6841 171.034 34.213 171.034 38.5662C171.034 42.9194 174.578 46.4484 178.949 46.4484Z" fill="#00B3DE"/>
<path d="M260.084 46.4484C264.456 46.4484 268 42.9194 268 38.5662C268 34.213 264.456 30.6841 260.084 30.6841C255.713 30.6841 252.169 34.213 252.169 38.5662C252.169 42.9194 255.713 46.4484 260.084 46.4484Z" fill="#00B3DE"/>
<path d="M206.183 38.4724C216.852 38.4724 225.501 29.8601 225.501 19.2362C225.501 8.61234 216.852 0 206.183 0C195.514 0 186.865 8.61234 186.865 19.2362C186.865 29.8601 195.514 38.4724 206.183 38.4724Z" fill="#00B3DE"/>
<path d="M240.39 38.8479C246.895 38.8479 252.169 33.5965 252.169 27.1186C252.169 20.6406 246.895 15.3892 240.39 15.3892C233.884 15.3892 228.61 20.6406 228.61 27.1186C228.61 33.5965 233.884 38.8479 240.39 38.8479Z" fill="#00B3DE"/>
</g>
<defs>
<clipPath id="clip0_3679_2656">
<rect width="268" height="93" fill="white"/>
</clipPath>
</defs>
</svg>
