<svg xmlns="http://www.w3.org/2000/svg" xmlns:xlink="http://www.w3.org/1999/xlink" x="0px" y="0px"
	 viewBox="0 0 447.6 123.5" style="enable-background:new 0 0 447.6 123.5;" xml:space="preserve">
		<path fill="#3D3D3D" d="M274.1,69.8c-0.1,28.1-19.8,49.8-45.1,52.8c-16.3,1.9-31.3-1.2-44-12c-28.9-24.4-21.1-70.2,14.2-84.4
			c25.4-10.3,54.7-1.3,68,20.8C271.9,54.8,274.1,63.3,274.1,69.8z M200.7,72.1c-0.1,12.3,8.8,22.1,20.2,22s20-9.3,20-21.4
			s-8.8-21.6-20.2-21.7C209.2,50.9,200.8,59.8,200.7,72.1z"/>
		<path fill="#3D3D3D" d="M447.6,103.5c-6.4,8.1-14,13.9-23.5,17c-15.4,4.8-30.5,4.2-45-2.9c-17.9-8.8-27.7-27.9-25.9-49.7
			c1.8-21.4,14.8-38.5,34.4-44.1c14-4.1,29.1-3,42.4,3c10.7,4.7,15.9,13.6,16.8,24.9c-4.9-0.4-9.4-0.7-14-1.3
			c-0.7-0.1-1.4-1-1.8-1.8c-2.3-4.2-5.9-6.6-10.7-6.7c-10.5-0.1-21.1-0.1-31.6,0c-4,0-6.1,2.3-6.2,6.3c-0.1,4.2-0.1,8.4,0,12.6
			c0.1,3.6,2.2,6,5.8,6c10.8,0.1,21.6,0.2,32.3,0c6.1-0.1,10.8-4.9,11.4-11.3c0.2-2.2,1-2.7,3.1-2.8c11.3-0.3,14,3.5,9.8,13.8
			c-4.1,10.1-12,15.3-23.6,15.4c-10.2,0.1-20.4,0-30.5,0h-4.3c1.8,6.9,5.4,11.7,11.7,14c9.9,3.5,19.6,2,30.5-8.2l9.3,7.7
			L447.6,103.5z"/>
		<path fill="#3D3D3D" d="M105.1,0H139v22.3h20.2V50h-19.9c-0.1,1.4-0.2,2.6-0.2,3.7c0,9.6,0,19.2,0,28.7c0,8.6,2.6,11.7,11.1,11
			c7.2-0.6,11.2,1.3,14.2,8.4c3.4,8.3,10.2,14.6,18.2,20.5c-1.9,0.1-3,0.3-4.1,0.3c-13.9,0-27.8,0-41.7,0c-2.4,0-4.8-0.1-7.2-0.4
			c-15.7-2.5-23.8-11.5-24.4-27.6c-0.4-11.6-0.2-23.2-0.2-34.8c0-18.6,0-37.1,0-55.7L105.1,0z"/>
		<path fill="#3D3D3D" d="M95.3,33.5l-11.4,21c-7-2.5-13.5-5.1-20.2-7c-3.5-0.8-7.1-1.2-10.6-1c-2.4,0-4.9,0.7-5.5,3.7s1.6,4.5,3.8,5.3
			c5,1.8,10.2,3.3,15.3,5.2c5,1.6,9.9,3.5,14.7,5.7C92.1,71.3,97.8,79.8,97.2,92c-0.6,12-5.8,21-16.8,26.4c-8.3,4-17.2,4.9-26.2,4.5
			c-5-0.3-9.9-1.1-15.7-1.8c5.5-7.8,7.2-15.6,3.9-24c5.7,0.6,10.9,1.2,16.2,1.7c1.4,0.2,2.9,0,4.2-0.6c1.4-0.8,3.1-2.3,3.3-3.7
			c0-1.7-0.9-3.3-2.3-4.2c-3.8-1.7-7.7-3.1-11.7-4.3c-6.4-2.2-13-4-19.2-6.7c-9.7-4.3-15.6-11.7-16-22.7c-0.5-12.6,4-22.4,15.2-28.8
			c9.8-5.6,20.6-6,31.4-5C74.7,23.7,85.7,27.4,95.3,33.5z"/>
		<path fill="#3D3D3D" d="M315.9,122.4h-33.9V24.1h33.6v16.6l0.7,0.2c0.5-0.8,1-1.6,1.5-2.5c5.9-10.9,14.7-16.7,27.3-16.3
			c7.6,0.2,15.2,0,23.3,0c-3.9,3.2-7.5,5.9-10.6,9c-6.4,6.6-10.7,14.9-12.5,23.9c-0.5,2.1-1.1,2.9-3.4,3.1
			c-15.8,0.9-24.5,9.4-25.5,25.4c-0.6,11.1-0.4,22.2-0.6,33.4C315.9,118.7,315.9,120.4,315.9,122.4z"/>
		<path fill="#21ACB2" d="M0,105.8c0-9.9,7.3-17.3,17.1-17.3c9.5-0.2,17.4,7.4,17.6,17c0,0.1,0,0.3,0,0.4c-0.2,9.5-7.9,17.2-17.5,17.3
			c-9.4,0.1-17.1-7.5-17.2-17C0,106,0,105.9,0,105.8z"/>
		<path fill="#21ACB2" d="M428,53.6c-0.2,3.2-1.6,4.8-3.8,4.5c-1.5-0.2-3.6-1.5-4-2.7s0.5-3.6,1.6-4.5c1.6-1.4,3.8-1.1,5.6,1.4
			c-1.1,0.1-2.2,0.2-3.3,0.5c-0.7,0.2-1.2,0.6-1.6,1.1c-0.1,0.6,0.1,1.1,0.5,1.5c0.6,0.2,1.4,0.2,2,0C426,54.8,427,54.2,428,53.6z"
			/>
</svg>
