<svg viewBox="0 0 122.34 54.88" xmlns="http://www.w3.org/2000/svg"><path d="m122.34 50.58a4.32 4.32 0 0 1 -4.3 4.3h-113.74a4.32 4.32 0 0 1 -4.3-4.3v-46.28a4.32 4.32 0 0 1 4.3-4.3h113.7a4.32 4.32 0 0 1 4.3 4.3v46.28z" fill="#6d6e71"/><g fill="#fff"><path d="m9.5 36.67a4.65 4.65 0 1 1 4.65 4.65 4.71 4.71 0 0 1 -4.65-4.65z"/><path d="m21.06 30.28c0-6.65 5.13-11 11.78-11 4.78 0 7.74 2.17 8.91 3.95l-5 4.74a4.09 4.09 0 0 0 -3.52-1.78 3.88 3.88 0 0 0 -4.13 4.08 3.92 3.92 0 0 0 4.13 4.13 4.23 4.23 0 0 0 3.52-1.82l5 4.78c-1.17 1.74-4.13 4-8.91 4-6.65 0-11.78-4.34-11.78-11z"/><path d="m44.32 40.8v-28.99h7.82v28.99z"/><path d="m56.49 40.8v-21h7.82v21zm-.49-26.91a4.39 4.39 0 1 1 4.39 4.39 4.38 4.38 0 0 1 -4.39-4.39z"/><path d="m67.22 30.28c0-6.65 5.13-11 11.78-11 4.79 0 7.74 2.17 8.92 3.95l-5 4.74a4.09 4.09 0 0 0 -3.52-1.78 3.88 3.88 0 0 0 -4.13 4.08 3.92 3.92 0 0 0 4.13 4.13 4.23 4.23 0 0 0 3.52-1.82l5 4.78c-1.18 1.74-4.13 4-8.92 4-6.65 0-11.78-4.34-11.78-11z"/><path d="m103.43 40.8-3.61-6.78-1.52 2.04v4.74h-7.82v-28.99h7.82v15.47l4.83-7.47h9.43l-7.22 9.56 7.7 11.43z"/></g></svg>